# xmcd
#
# Track frame offsets: 
#        150
#        9885
#        21055
#        39125
#        51645
#        63165
#        80885
#        94770
#        117623
#        123830
#        134195
#        157480
#        167098
#        183203
#        196990
#        209528
#        235303
#        246128
#
# Disc length: 3426 seconds
#
# Revision: 0
# Processed by: cddbd v1.5PL3 Copyright (c) Steve Scherf et al.
# Submitted via: ExactAudioCopy v0.95a4
#
DISCID=020d6012
DTITLE=Eric Clapton - The Blues Album
DYEAR=1900
DGENRE=Blues
TTITLE0=I'm Your Witchdoctor
TTITLE1=Snake Drive
TTITLE2=Mr. Downchild
TTITLE3=Freight Loader
TTITLE4=Got To Hurry
TTITLE5=Telephone Blues
TTITLE6=Out On Water Coast
TTITLE7=Five Long Years
TTITLE8=Choker
TTITLE9=West Coast Idea
TTITLE10=Twenty Three Hours Too Long
TTITLE11=Tribute To Elmore
TTITLE12=Louise
TTITLE13=Draggin' My Tail
TTITLE14=On Top Of The World
TTITLE15=Take It Easy Baby
TTITLE16=Miles Road
TTITLE17=Boom Boom
EXTD=
EXTT0=
EXTT1=
EXTT2=
EXTT3=
EXTT4=
EXTT5=
EXTT6=
EXTT7=
EXTT8=
EXTT9=
EXTT10=
EXTT11=
EXTT12=
EXTT13=
EXTT14=
EXTT15=
EXTT16=
EXTT17=
PLAYORDER=
